<?xml version="1.0" standalone="no"?>
<!DOCTYPE svg PUBLIC "-//W3C//DTD SVG 20010904//EN"
 "http://www.w3.org/TR/2001/REC-SVG-20010904/DTD/svg10.dtd">
<svg version="1.0" xmlns="http://www.w3.org/2000/svg"
 width="500.000000pt" height="500.000000pt" viewBox="0 0 500.000000 500.000000"
 preserveAspectRatio="xMidYMid meet">

<g transform="translate(0.000000,500.000000) scale(0.100000,-0.100000)"
fill="#000000" stroke="none">
<path d="M2085 3721 c-16 -10 -41 -30 -54 -45 l-24 -26 26 -77 c46 -133 51
-277 13 -365 -7 -18 -42 -69 -78 -113 -68 -85 -107 -162 -134 -264 -19 -75
-13 -141 21 -221 13 -31 25 -84 28 -120 7 -98 42 -159 205 -348 20 -23 37 -46
36 -50 0 -4 8 -16 19 -27 10 -11 40 -65 67 -120 27 -55 61 -113 74 -128 55
-61 171 -74 282 -32 175 66 298 185 403 389 28 53 48 96 46 96 -2 0 3 19 11
43 25 71 42 215 34 292 -8 77 -37 170 -81 258 -16 32 -29 60 -29 62 0 3 26 5
59 5 74 0 86 13 86 91 0 47 -4 63 -22 81 -22 21 -25 22 -70 8 -27 -7 -62 -14
-80 -14 -17 -1 -29 -4 -26 -8 9 -16 -109 -8 -137 9 -32 18 -64 72 -73 121 -6
29 -5 31 11 23 9 -5 44 -37 77 -70 33 -34 65 -61 72 -61 21 0 80 59 87 85 12
49 -86 170 -172 214 -21 11 -44 27 -52 36 -16 19 -16 99 0 170 12 54 5 65 -42
65 -34 0 -36 -3 -48 -91 -18 -123 -45 -160 -106 -145 -33 9 -50 51 -59 144 -4
42 -12 72 -19 73 -29 3 -63 -4 -82 -16 -21 -13 -21 -16 -7 -87 17 -89 9 -181
-18 -215 -10 -12 -17 4 -35 85 -22 99 -67 219 -104 280 -23 38 -58 42 -105 13z
m107 -47 c32 -59 73 -178 93 -275 l15 -71 -43 -42 c-24 -23 -52 -61 -63 -84
-13 -29 -23 -40 -34 -36 -8 4 -34 9 -58 11 -29 4 -42 10 -38 18 2 7 10 41 17
75 16 84 6 190 -28 293 l-29 87 25 24 c28 27 89 57 106 52 6 -1 22 -25 37 -52z
m501 -34 c0 -14 -4 -57 -8 -97 -9 -80 4 -114 50 -135 14 -6 22 -15 19 -20 -3
-5 -2 -8 3 -7 29 5 81 -39 132 -110 38 -53 39 -70 5 -110 -33 -39 -54 -39 -83
0 -34 46 -136 116 -178 123 -46 8 -94 -5 -143 -39 -54 -38 -81 -94 -89 -183
l-6 -75 -80 -48 c-44 -27 -82 -48 -85 -49 -8 0 -25 51 -40 119 -15 62 -8 136
16 183 20 41 80 105 116 124 39 20 52 70 45 178 -3 50 -9 100 -12 112 -5 15 0
23 20 32 14 7 32 12 40 12 15 0 17 -5 33 -115 9 -55 16 -75 37 -92 75 -65 155
29 155 182 0 38 7 47 35 43 14 -2 20 -10 18 -28z m-39 -376 c9 -3 16 -16 16
-29 0 -34 20 -86 47 -122 41 -56 125 -65 258 -28 18 5 20 1 21 -47 1 -29 3
-62 5 -73 4 -18 -3 -21 -86 -26 -122 -9 -202 -41 -241 -98 -34 -48 -165 -16
-246 58 l-52 48 46 44 c52 50 71 101 66 182 -3 50 -2 51 37 74 39 22 96 30
129 17z m-184 -125 c0 -50 -32 -129 -52 -129 -13 0 0 106 19 145 9 19 20 35
25 35 4 0 8 -23 8 -51z m-317 10 c13 -8 17 -23 17 -72 0 -55 15 -130 35 -179
5 -13 -4 -22 -42 -42 -94 -48 -193 -126 -236 -186 -23 -32 -45 -59 -48 -59
-13 -2 -32 57 -36 115 -9 106 51 257 155 385 l47 59 45 -6 c25 -3 53 -10 63
-15z m914 -70 c18 -35 16 -104 -3 -120 -38 -31 -73 77 -43 132 13 25 30 20 46
-12z m-676 -172 c35 -43 131 -94 196 -103 66 -8 76 -34 40 -103 -20 -38 -31
-47 -59 -52 -42 -7 -58 -16 -58 -35 0 -9 10 -14 27 -14 25 0 25 -1 9 -19 -10
-10 -33 -22 -51 -25 -39 -8 -73 -45 -52 -58 6 -4 20 -5 31 -2 15 5 17 2 13
-23 -22 -109 -19 -153 8 -153 20 0 29 43 16 68 -14 26 -14 89 -1 97 6 3 13 -1
16 -9 7 -19 30 -21 37 -3 2 6 -2 27 -10 46 -12 32 -12 37 5 53 18 18 19 18 32
-7 7 -14 18 -25 25 -25 14 0 18 60 6 79 -9 14 25 101 39 101 9 0 29 -67 36
-123 7 -52 -9 -155 -37 -242 -17 -51 -26 -64 -63 -86 -29 -18 -52 -25 -70 -22
-37 8 -76 -4 -70 -21 3 -8 15 -17 27 -20 l21 -5 -23 -25 c-16 -17 -33 -24 -57
-23 -42 1 -78 -28 -54 -43 8 -5 23 -10 33 -10 16 0 16 -2 3 -28 -8 -16 -22
-34 -30 -41 -15 -13 -23 -81 -9 -81 17 0 43 36 43 59 0 36 11 71 21 71 5 0 9
-6 9 -14 0 -21 21 -31 32 -15 5 8 7 33 4 55 -4 35 -1 45 19 64 l25 23 0 -26
c0 -14 4 -28 10 -32 15 -9 43 42 36 69 -4 18 0 28 20 41 14 9 27 15 29 13 2
-2 -3 -30 -11 -63 -24 -105 -15 -253 21 -347 6 -14 -3 -22 -41 -38 -80 -35
-138 -43 -195 -30 -72 18 -104 50 -161 164 -28 56 -64 120 -79 143 -16 23 -29
44 -29 46 0 3 -14 20 -32 38 -134 143 -182 228 -192 338 -6 67 -4 77 18 116
44 73 53 74 58 4 4 -54 2 -64 -19 -85 -25 -25 -31 -74 -9 -74 7 0 19 7 26 15
21 25 43 -49 29 -92 -7 -23 -7 -38 1 -53 14 -26 33 -21 40 9 5 22 5 22 27 4
15 -13 20 -26 16 -45 -6 -30 13 -71 30 -65 6 2 14 14 17 27 6 24 6 24 28 -8
18 -25 21 -36 12 -51 -16 -31 -12 -59 11 -72 12 -6 19 -7 15 -1 -3 5 1 15 9
22 13 11 15 5 15 -43 0 -37 5 -59 16 -68 13 -10 17 -10 25 2 13 21 11 50 -5
68 -8 9 -17 28 -21 43 -6 24 -4 27 24 30 31 3 31 4 16 26 -11 15 -26 22 -48
22 -24 0 -38 8 -59 34 l-28 35 27 3 c14 2 28 8 30 14 5 16 -44 35 -72 28 -14
-3 -33 0 -45 9 -20 14 -20 15 12 21 l32 6 -20 21 c-12 11 -35 21 -52 21 -23 1
-32 7 -36 24 -3 12 -8 29 -11 36 -5 11 1 14 25 10 22 -3 30 0 30 11 0 22 -28
47 -51 47 -17 0 -19 8 -19 79 l0 79 43 34 c59 48 64 50 86 39 13 -8 19 -21 18
-45 -1 -35 19 -70 34 -60 5 3 9 17 9 31 l0 26 20 -25 c18 -24 19 -28 4 -57
-15 -30 -12 -71 6 -71 5 0 15 9 23 20 14 20 15 20 20 -7 3 -16 -1 -36 -9 -47
-19 -28 -18 -76 1 -76 8 0 20 8 26 19 11 17 15 15 52 -24 37 -41 82 -62 93
-44 8 13 -42 59 -65 59 -11 0 -27 8 -37 18 -17 16 -16 17 15 22 l33 5 -21 26
c-15 19 -27 25 -44 22 -19 -4 -26 0 -30 19 -10 36 -9 38 23 38 17 0 30 3 30 7
0 16 -35 43 -56 43 -14 0 -31 12 -43 29 l-21 29 31 13 c30 12 30 13 13 26 -11
8 -37 13 -59 12 -53 -2 -65 -1 -65 10 0 13 130 72 142 65 7 -4 8 -2 4 4 -3 6
3 16 14 22 11 6 20 8 20 5 0 -3 10 3 22 15 29 27 39 26 69 -13z m563 -29 c28
-51 59 -128 51 -128 -2 0 -10 6 -17 13 -37 36 -116 57 -214 57 l-97 0 24 26
c37 41 120 73 214 83 6 0 23 -23 39 -51z m-33 -97 c25 -12 60 -37 78 -55 62
-64 66 -231 11 -411 l-22 -69 -13 38 c-7 20 -20 45 -29 55 -9 10 -14 21 -11
24 3 4 2 5 -2 2 -3 -3 -11 -1 -17 4 -6 5 -38 23 -71 41 -103 55 -126 84 -132
170 -2 30 -6 60 -8 67 -3 8 7 7 30 -4 20 -10 35 -24 35 -34 0 -10 5 -21 10
-24 6 -4 8 -10 6 -14 -3 -4 0 -8 7 -8 7 0 19 -2 27 -4 11 -3 14 3 12 24 -1 15
1 27 5 27 20 -1 35 -19 32 -41 -3 -26 16 -69 31 -69 5 0 12 9 15 21 5 16 9 18
21 8 8 -6 12 -14 10 -16 -2 -3 0 -18 6 -34 11 -31 42 -54 59 -44 16 11 0 44
-44 88 l-41 41 27 9 c27 9 37 36 15 39 -7 1 -36 2 -65 2 -56 1 -73 10 -55 28
34 34 -22 55 -59 23 -20 -19 -60 -12 -82 13 -7 10 -23 40 -34 69 -26 63 -27
63 107 59 72 -2 106 -8 141 -25z m-701 -1 c0 -5 -9 -10 -20 -10 -11 0 -20 5
-20 10 0 6 9 10 20 10 11 0 20 -4 20 -10z m-50 -58 c0 -7 -4 -10 -10 -7 -5 3
-10 16 -10 28 0 18 2 19 10 7 5 -8 10 -21 10 -28z m116 -57 c16 -12 16 -14 3
-15 -9 0 -22 7 -29 15 -16 19 0 19 26 0z m-65 -48 c-13 -13 -15 11 -4 40 7 16
8 15 11 -6 2 -13 -1 -28 -7 -34z m609 38 c-7 -8 -17 -15 -22 -15 -6 0 -5 7 2
15 7 8 17 15 22 15 6 0 5 -7 -2 -15z m-264 -30 c-11 -8 -25 -15 -30 -15 -6 0
-2 7 8 15 11 8 25 15 30 15 6 0 2 -7 -8 -15z m54 -42 c0 -7 -4 -13 -10 -13 -5
0 -10 12 -10 28 0 21 2 24 10 12 5 -8 10 -21 10 -27z m194 11 c9 -24 7 -28 -9
-14 -17 14 -20 30 -6 30 5 0 12 -7 15 -16z m139 -1 c-7 -2 -21 -2 -30 0 -10 3
-4 5 12 5 17 0 24 -2 18 -5z m-627 -38 c15 -11 16 -14 3 -15 -8 0 -24 7 -35
15 -15 11 -16 14 -3 15 8 0 24 -7 35 -15z m574 -7 c0 -19 -2 -20 -10 -8 -13
19 -13 30 0 30 6 0 10 -10 10 -22z m-864 -25 c-8 -8 -36 5 -36 17 0 7 6 7 21
0 11 -7 18 -14 15 -17z m221 -5 c-3 -7 -5 -2 -5 12 0 14 2 19 5 13 2 -7 2 -19
0 -25z m-292 -8 c-4 -12 -9 -19 -12 -17 -3 3 -2 15 2 27 4 12 9 19 12 17 3 -3
2 -15 -2 -27z m522 13 c-9 -9 -20 -13 -24 -9 -4 4 -1 11 7 16 25 16 35 11 17
-7z m63 -31 c0 -7 -4 -10 -10 -7 -5 3 -10 16 -10 28 0 18 2 19 10 7 5 -8 10
-21 10 -28z m223 -57 c49 -36 51 -79 7 -123 -45 -45 -38 -78 10 -52 15 8 17 6
13 -11 -3 -11 -20 -26 -38 -34 -29 -12 -55 -40 -55 -60 0 -4 14 -5 31 -3 l30
5 -8 -41 c-13 -70 -10 -121 7 -121 12 0 14 12 12 60 -1 33 0 71 4 84 l5 24 15
-22 c8 -11 19 -21 25 -21 16 0 10 68 -7 78 -12 7 -14 17 -9 46 7 34 9 36 24
21 25 -22 41 -19 41 9 0 14 -11 33 -26 45 -19 15 -25 27 -22 51 l3 32 49 -33
c28 -19 49 -38 48 -42 -2 -4 4 -14 12 -23 8 -8 18 -31 22 -52 6 -31 1 -48 -30
-107 -51 -96 -129 -189 -210 -252 -37 -29 -72 -53 -76 -53 -16 0 -43 128 -43
210 -1 93 14 167 48 245 20 46 35 97 50 169 5 24 8 26 18 14 7 -8 29 -27 50
-43z m227 23 c0 -6 -7 -5 -15 2 -8 7 -15 17 -15 22 0 6 7 5 15 -2 8 -7 15 -17
15 -22z m-614 -3 c10 -8 14 -15 8 -15 -5 0 -19 7 -30 15 -10 8 -14 15 -8 15 5
0 19 -7 30 -15z m-306 -45 c12 -8 11 -10 -7 -10 -13 0 -23 5 -23 10 0 13 11
13 30 0z m-50 -46 c0 -8 -4 -14 -10 -14 -5 0 -10 9 -10 21 0 11 5 17 10 14 6
-3 10 -13 10 -21z m470 -1 c0 -22 -2 -25 -10 -13 -13 20 -13 40 0 40 6 0 10
-12 10 -27z m-330 -33 c0 -5 -9 -10 -19 -10 -11 0 -23 5 -26 10 -4 6 5 10 19
10 14 0 26 -4 26 -10z m-59 -63 c-8 -8 -11 -3 -11 19 1 25 2 27 11 11 8 -14 8
-22 0 -30z m678 12 c-19 -12 -24 -2 -8 17 9 11 14 13 17 4 3 -7 -2 -16 -9 -21z
m75 5 c8 -21 -12 -17 -24 6 -8 16 -8 18 4 14 8 -3 17 -12 20 -20z m-339 -54
c4 -6 -5 -10 -19 -10 -14 0 -26 5 -26 10 0 6 9 10 19 10 11 0 23 -4 26 -10z
m-260 -21 c16 -16 -20 -10 -41 7 -18 14 -18 15 6 8 14 -3 29 -10 35 -15z m-74
-36 c-9 -16 -10 -14 -11 12 0 21 3 26 11 18 8 -8 8 -16 0 -30z m355 -11 c-12
-11 -18 7 -10 30 l8 23 4 -23 c2 -13 1 -26 -2 -30z m224 23 c-7 -8 -17 -15
-22 -15 -6 0 -5 7 2 15 7 8 17 15 22 15 6 0 5 -7 -2 -15z m60 -34 c-1 -13 -3
-13 -15 3 -19 26 -19 42 0 26 8 -7 15 -20 15 -29z m-400 -21 c-8 -5 -24 -10
-35 -10 -17 0 -17 2 -5 10 8 5 24 10 35 10 17 0 17 -2 5 -10z m-180 -55 c0
-17 -2 -17 -10 -5 -5 8 -10 24 -10 35 0 17 2 17 10 5 5 -8 10 -24 10 -35z
m220 14 c0 -10 -4 -19 -10 -19 -5 0 -10 12 -10 26 0 14 4 23 10 19 6 -3 10
-15 10 -26z m310 -49 c0 -11 -4 -20 -10 -20 -5 0 -10 9 -10 20 0 11 5 20 10
20 6 0 10 -9 10 -20z m-391 -52 c-7 -13 -14 -18 -16 -11 -3 7 1 22 8 35 7 13
14 18 16 11 3 -7 -1 -22 -8 -35z"/>
<path d="M847 2165 c36 -666 454 -1239 1073 -1468 134 -50 235 -74 391 -93
482 -59 976 103 1321 435 206 197 336 392 428 640 38 103 79 291 84 382 2 41
2 61 0 44 -15 -110 -37 -222 -59 -295 -31 -106 -86 -240 -97 -240 -5 0 -7 -4
-4 -8 8 -14 -105 -202 -180 -298 -159 -204 -345 -354 -592 -478 -396 -198
-892 -215 -1327 -45 -107 41 -272 130 -293 157 -7 10 -15 16 -18 14 -14 -8
-215 159 -288 239 -244 269 -391 605 -427 977 -13 143 -19 160 -12 37z"/>
<path d="M2055 1508 c-32 -17 -45 -39 -45 -78 0 -49 19 -64 125 -100 103 -35
115 -43 115 -81 0 -36 -31 -69 -67 -71 -82 -4 -139 20 -151 66 -5 17 -11 30
-15 29 -4 -2 -7 -5 -7 -8 0 -3 0 -27 0 -55 0 -27 5 -50 10 -50 6 0 10 6 10 14
0 12 9 11 46 -6 57 -25 120 -20 167 12 26 18 33 30 35 61 4 56 -26 81 -130
113 -119 36 -150 79 -90 126 54 43 173 7 180 -54 2 -15 9 -26 15 -23 13 4 22
80 12 106 -6 15 -8 14 -19 -2 -12 -16 -16 -16 -42 -2 -34 17 -120 19 -149 3z"/>
<path d="M2315 1510 c-3 -6 5 -10 18 -10 l25 0 4 -132 c4 -148 10 -164 69
-197 46 -26 95 -27 136 -1 58 35 67 60 71 202 4 118 6 129 23 126 10 -2 18 2
19 7 0 6 -25 11 -55 13 -34 2 -55 -1 -55 -8 0 -5 9 -10 21 -10 20 0 20 -4 17
-134 -3 -115 -6 -137 -22 -155 -41 -46 -133 -43 -173 4 -21 24 -23 36 -23 156
0 122 1 129 20 129 11 0 20 5 20 10 0 6 -24 10 -54 10 -30 0 -58 -4 -61 -10z"/>
<path d="M2759 1491 c-37 -38 -39 -83 -4 -115 13 -13 59 -33 100 -45 94 -28
131 -57 121 -94 -9 -36 -46 -59 -98 -59 -62 -1 -118 27 -125 63 -9 48 -23 32
-23 -26 0 -30 5 -55 10 -55 6 0 10 7 10 16 0 9 3 14 8 12 62 -32 91 -40 134
-35 55 7 83 22 97 54 32 70 -2 111 -123 148 -114 35 -141 70 -91 120 48 49
170 19 185 -44 3 -14 11 -26 18 -29 9 -3 12 14 12 57 0 57 -13 81 -26 47 -5
-12 -10 -12 -39 0 -19 8 -57 14 -85 14 -44 0 -56 -5 -81 -29z"/>
<path d="M2367 1044 c-3 -4 -4 -19 -1 -34 4 -16 1 -31 -5 -35 -8 -5 -10 1 -5
20 5 21 4 27 -7 23 -8 -2 -15 -19 -17 -37 -3 -30 -1 -32 24 -29 23 2 30 9 35
36 4 17 3 32 -2 32 -5 0 -6 7 -3 15 6 15 -7 21 -19 9z"/>
<path d="M1890 1020 c-7 -4 -10 -17 -7 -29 3 -12 1 -21 -4 -21 -5 0 -9 -4 -9
-10 0 -5 12 -10 26 -10 23 0 26 3 22 25 -3 14 -1 25 3 25 14 0 10 17 -4 23 -8
3 -20 2 -27 -3z"/>
<path d="M1946 1018 c-13 -40 -15 -67 -6 -73 5 -3 12 7 16 22 3 15 7 33 9 40
2 7 0 15 -6 18 -5 4 -11 0 -13 -7z"/>
<path d="M2474 995 c-6 -34 -1 -55 11 -43 3 3 9 22 12 42 8 48 -14 48 -23 1z"/>
<path d="M2683 1013 c-15 -10 -23 -26 -23 -43 0 -24 3 -27 25 -22 14 2 25 11
25 21 0 9 3 26 6 39 7 26 -2 27 -33 5z"/>
<path d="M2838 1019 c-21 -12 -24 -35 -5 -42 7 -3 5 -6 -5 -6 -29 -1 -21 -21
8 -21 23 0 26 4 22 25 -3 13 0 26 6 28 7 3 8 8 1 15 -7 7 -16 8 -27 1z"/>
<path d="M2975 1008 c5 -18 4 -20 -4 -8 -10 13 -12 13 -21 0 -18 -28 -12 -50
15 -50 18 0 26 6 29 23 8 36 4 57 -11 57 -10 0 -12 -7 -8 -22z"/>
<path d="M3050 1021 c0 -5 -9 -11 -20 -14 -14 -3 -20 -14 -20 -31 0 -21 5 -26
25 -26 17 0 25 6 25 18 0 9 3 27 6 40 4 13 2 22 -5 22 -6 0 -11 -4 -11 -9z"/>
<path d="M2035 1010 c-3 -6 -17 -7 -30 -4 -28 7 -41 -11 -23 -33 9 -12 9 -15
1 -9 -7 4 -13 3 -13 -3 0 -15 14 -21 29 -11 8 4 11 15 8 24 -4 10 -1 16 9 16
10 0 13 -6 9 -19 -3 -12 0 -21 9 -24 18 -7 30 8 20 24 -3 6 -1 15 6 19 7 4 9
13 6 19 -9 14 -23 14 -31 1z"/>
<path d="M2174 1012 c-29 -3 -43 -20 -44 -53 0 -3 20 -6 45 -6 40 -1 45 2 45
21 0 32 -12 41 -46 38z"/>
<path d="M2240 1000 c-17 -32 -12 -50 15 -50 15 0 25 6 25 14 0 8 3 21 6 29 8
23 -34 29 -46 7z"/>
<path d="M2082 998 c-27 -27 -3 -67 29 -47 12 7 12 9 0 9 -11 0 -10 4 4 13 19
14 13 37 -9 37 -6 0 -17 -5 -24 -12z"/>
<path d="M2404 985 c-7 -29 3 -46 15 -26 7 11 10 11 14 0 4 -12 7 -11 16 1 16
22 9 45 -16 48 -17 3 -24 -3 -29 -23z"/>
<path d="M2510 991 c-14 -27 -3 -50 21 -44 22 6 25 19 7 27 -10 5 -10 7 0 12
17 8 15 24 -3 24 -8 0 -19 -9 -25 -19z"/>
<path d="M2567 1003 c-13 -12 -7 -51 8 -57 20 -7 44 20 38 44 -5 19 -32 27
-46 13z"/>
<path d="M2732 998 c-7 -7 -12 -20 -12 -30 0 -27 46 -24 53 4 10 36 -15 52
-41 26z"/>
<path d="M2881 988 c-11 -30 -6 -38 25 -38 20 0 24 5 24 30 0 23 -4 30 -20 30
-12 0 -24 -9 -29 -22z"/>
<path d="M3080 990 c-13 -24 -5 -40 19 -40 18 0 35 35 25 52 -9 15 -33 8 -44
-12z"/>
</g>
</svg>
